#!OML:ASF C:\ViconDB\ViconDB\414\Spring2016\041811\Spring2016.ASF
:FULLY-SPECIFIED
:DEGREES
295
root 6.07524 15.8848 -45.1069 -175.808 -1.24749 -178.6
lowerback 28.6306 0.336831 -1.44243
upperback 4.58338 -1.16833 -0.147407
thorax -10.6758 -0.965837 1.18646
lowerneck -12.5056 -7.05002 -15.0561
upperneck 9.20793 -9.28717 21.17
head 6.67639 -3.49588 8.5818
rclavicle 9.14409e-015 1.11319e-014
rhumerus -56.6414 -12.3987 -76.0228
rradius 50.7397
rwrist 15.6119
rhand -35.0981 -15.6131
rfingers 7.12502
rthumb -8.23942 -45.4325
lclavicle 9.14409e-015 1.11319e-014
lhumerus -51.7658 4.04909 74.3449
lradius 48.1952
lwrist -5.25982
lhand -33.1674 16.413
lfingers 7.12502
lthumb -6.37585 46.2971
rfemur -48.4706 -21.0254 23.5339
rtibia 72.0759
rfoot -6.73512 -10.716
rtoes -4.95969
lfemur -53.6012 15.129 -14.2906
ltibia 71.8443
lfoot -19.3867 -6.29909
ltoes -9.53516
296
root 6.04883 15.6054 -45.2606 -174.841 -1.42396 -178.576
lowerback 28.8205 0.262986 -1.29157
upperback 4.61508 -1.22782 -0.113634
thorax -10.7355 -1.0013 1.16343
lowerneck -12.8601 -7.13087 -14.853
upperneck 8.51047 -9.29981 21.1612
head 6.51834 -3.49383 8.51543
rclavicle -2.38542e-015 1.27222e-014
rhumerus -55.5812 -16.0283 -74.8338
rradius 46.635
rwrist 19.4981
rhand -35.4002 -15.0248
rfingers 7.12502
rthumb -8.53105 -44.8325
lclavicle -2.38542e-015 1.27222e-014
lhumerus -50.2226 6.61405 74.6448
lradius 44.697
lwrist -6.1575
lhand -32.6614 17.0033
lfingers 7.12502
lthumb -5.88733 46.9015
rfemur -51.3873 -21.6236 23.7395
rtibia 75.8237
rfoot -5.9795 -11.3174
rtoes -2.95658
lfemur -56.6276 15.2714 -14.5682
ltibia 75.501
lfoot -20.9164 -6.28722
ltoes -10.1438
297
root 6.02662 15.3751 -45.4018 -174.066 -1.43324 -178.517
lowerback 28.8224 0.270428 -1.20983
upperback 4.99397 -1.27204 -0.114605
thorax -10.3023 -1.06464 1.12906
lowerneck -13.7121 -6.98886 -14.0998
upperneck 7.69373 -8.96773 20.7522
head 6.29429 -3.30525 8.24464
rclavicle 1.8487e-014 1.43125e-014
rhumerus -54.3364 -20.4474 -73.3025
rradius 43.12
rwrist 24.0392
rhand -35.5322 -14.4465
rfingers 7.12502
rthumb -8.65835 -44.249
lclavicle 1.8487e-014 1.43125e-014
lhumerus -48.346 9.39272 74.653
lradius 41.5484
lwrist -7.3263
lhand -32.2703 17.4306
lfingers 7.12502
lthumb -5.50969 47.339
rfemur -53.5061 -22.0681 23.9977
rtibia 78.7447
rfoot -4.65016 -12.204
rtoes -2.16748
lfemur -58.7959 15.6954 -14.7919
ltibia 78.4393
lfoot -22.6541 -6.45077
ltoes -10.5849
298
root 6.0067 15.1925 -45.5391 -173.321 -1.41783 -178.379
lowerback 29.3479 0.306499 -1.07851
upperback 5.06416 -1.22628 -0.0704246
thorax -10.4877 -1.05996 1.09902
lowerneck -14.066 -6.88465 -13.6152
upperneck 6.70425 -8.69373 20.6268
head 5.97539 -3.16305 8.1234
rclavicle 8.54774e-015 -1.19271e-015
rhumerus -53.8136 -23.949 -72.1263
rradius 40.6433
rwrist 26.9505
rhand -35.9233 -14.1335
rfingers 7.12502
rthumb -9.03576 -43.9199
lclavicle 8.54774e-015 -1.19271e-015
lhumerus -46.752 11.7044 74.7838
lradius 38.565
lwrist -7.99538
lhand -32.4896 17.2904
lfingers 7.12502
lthumb -5.72144 47.1932
rfemur -55.1239 -22.2258 24.2883
rtibia 80.9714
rfoot -3.10527 -13.124
rtoes -2.86474
lfemur -60.5177 16.1244 -14.8817
ltibia 80.7989
lfoot -24.2616 -6.63555
ltoes -10.8803
